<mxfile host="Electron" agent="Mozilla/5.0 (Windows NT 10.0; Win64; x64) AppleWebKit/537.36 (KHTML, like Gecko) draw.io/24.7.17 Chrome/128.0.6613.36 Electron/32.0.1 Safari/537.36" version="24.7.17">
  <diagram name="Page-1" id="rheF0-HEP5z9U-VoV_7S">
    <mxGraphModel dx="1434" dy="836" grid="1" gridSize="10" guides="1" tooltips="1" connect="1" arrows="1" fold="1" page="1" pageScale="1" pageWidth="3300" pageHeight="4681" math="0" shadow="0">
      <root>
        <mxCell id="0" />
        <mxCell id="1" parent="0" />
        <mxCell id="mrI6G-oE_K02Mk8l2xmg-3" style="edgeStyle=orthogonalEdgeStyle;rounded=0;orthogonalLoop=1;jettySize=auto;html=1;entryX=0.5;entryY=0;entryDx=0;entryDy=0;" parent="1" source="mrI6G-oE_K02Mk8l2xmg-1" target="mrI6G-oE_K02Mk8l2xmg-2" edge="1">
          <mxGeometry relative="1" as="geometry" />
        </mxCell>
        <mxCell id="mrI6G-oE_K02Mk8l2xmg-1" value="&lt;font style=&quot;font-size: 24px;&quot;&gt;START&lt;/font&gt;" style="ellipse;whiteSpace=wrap;html=1;" parent="1" vertex="1">
          <mxGeometry x="634" y="30" width="175" height="90" as="geometry" />
        </mxCell>
        <mxCell id="mrI6G-oE_K02Mk8l2xmg-6" style="edgeStyle=orthogonalEdgeStyle;rounded=0;orthogonalLoop=1;jettySize=auto;html=1;exitX=0;exitY=0.5;exitDx=0;exitDy=0;entryX=0.5;entryY=0;entryDx=0;entryDy=0;" parent="1" source="mrI6G-oE_K02Mk8l2xmg-2" target="mrI6G-oE_K02Mk8l2xmg-4" edge="1">
          <mxGeometry relative="1" as="geometry" />
        </mxCell>
        <mxCell id="mrI6G-oE_K02Mk8l2xmg-7" style="edgeStyle=orthogonalEdgeStyle;rounded=0;orthogonalLoop=1;jettySize=auto;html=1;exitX=1;exitY=0.5;exitDx=0;exitDy=0;" parent="1" source="mrI6G-oE_K02Mk8l2xmg-2" target="mrI6G-oE_K02Mk8l2xmg-5" edge="1">
          <mxGeometry relative="1" as="geometry" />
        </mxCell>
        <mxCell id="mrI6G-oE_K02Mk8l2xmg-2" value="&lt;font style=&quot;font-size: 24px;&quot;&gt;INPUT A,B&lt;/font&gt;" style="shape=parallelogram;perimeter=parallelogramPerimeter;whiteSpace=wrap;html=1;fixedSize=1;" parent="1" vertex="1">
          <mxGeometry x="630" y="230" width="183" height="90" as="geometry" />
        </mxCell>
        <mxCell id="mrI6G-oE_K02Mk8l2xmg-10" style="edgeStyle=orthogonalEdgeStyle;rounded=0;orthogonalLoop=1;jettySize=auto;html=1;exitX=0;exitY=1;exitDx=0;exitDy=0;entryX=0.5;entryY=0;entryDx=0;entryDy=0;" parent="1" source="mrI6G-oE_K02Mk8l2xmg-4" target="mrI6G-oE_K02Mk8l2xmg-8" edge="1">
          <mxGeometry relative="1" as="geometry" />
        </mxCell>
        <mxCell id="mrI6G-oE_K02Mk8l2xmg-11" style="edgeStyle=orthogonalEdgeStyle;rounded=0;orthogonalLoop=1;jettySize=auto;html=1;exitX=1;exitY=1;exitDx=0;exitDy=0;entryX=0.5;entryY=0;entryDx=0;entryDy=0;" parent="1" source="mrI6G-oE_K02Mk8l2xmg-4" target="mrI6G-oE_K02Mk8l2xmg-9" edge="1">
          <mxGeometry relative="1" as="geometry" />
        </mxCell>
        <mxCell id="mrI6G-oE_K02Mk8l2xmg-4" value="&lt;font style=&quot;font-size: 24px;&quot;&gt;IF A = 0&lt;/font&gt;" style="rhombus;whiteSpace=wrap;html=1;" parent="1" vertex="1">
          <mxGeometry x="280" y="400" width="130" height="120" as="geometry" />
        </mxCell>
        <mxCell id="mrI6G-oE_K02Mk8l2xmg-17" style="edgeStyle=orthogonalEdgeStyle;rounded=0;orthogonalLoop=1;jettySize=auto;html=1;exitX=0.5;exitY=1;exitDx=0;exitDy=0;" parent="1" source="mrI6G-oE_K02Mk8l2xmg-5" edge="1">
          <mxGeometry relative="1" as="geometry">
            <mxPoint x="1045" y="630" as="targetPoint" />
          </mxGeometry>
        </mxCell>
        <mxCell id="mrI6G-oE_K02Mk8l2xmg-5" value="&lt;font style=&quot;font-size: 24px;&quot;&gt;IF A # 0&lt;/font&gt;" style="rhombus;whiteSpace=wrap;html=1;" parent="1" vertex="1">
          <mxGeometry x="980" y="420" width="130" height="120" as="geometry" />
        </mxCell>
        <mxCell id="mrI6G-oE_K02Mk8l2xmg-14" style="edgeStyle=orthogonalEdgeStyle;rounded=0;orthogonalLoop=1;jettySize=auto;html=1;entryX=0.5;entryY=0;entryDx=0;entryDy=0;" parent="1" source="mrI6G-oE_K02Mk8l2xmg-8" target="mrI6G-oE_K02Mk8l2xmg-12" edge="1">
          <mxGeometry relative="1" as="geometry" />
        </mxCell>
        <mxCell id="mrI6G-oE_K02Mk8l2xmg-8" value="&lt;font style=&quot;font-size: 24px;&quot;&gt;IF B = 0&lt;/font&gt;" style="rhombus;whiteSpace=wrap;html=1;" parent="1" vertex="1">
          <mxGeometry x="210" y="620" width="130" height="120" as="geometry" />
        </mxCell>
        <mxCell id="mrI6G-oE_K02Mk8l2xmg-9" value="&lt;font style=&quot;font-size: 24px;&quot;&gt;IF B # 0&lt;/font&gt;" style="rhombus;whiteSpace=wrap;html=1;" parent="1" vertex="1">
          <mxGeometry x="384" y="620" width="130" height="120" as="geometry" />
        </mxCell>
        <mxCell id="mrI6G-oE_K02Mk8l2xmg-12" value="&lt;font style=&quot;font-size: 24px;&quot;&gt;PRINT&amp;nbsp;Equation with infinite solutions&lt;/font&gt;" style="shape=parallelogram;perimeter=parallelogramPerimeter;whiteSpace=wrap;html=1;fixedSize=1;" parent="1" vertex="1">
          <mxGeometry x="90" y="840" width="283" height="130" as="geometry" />
        </mxCell>
        <mxCell id="mrI6G-oE_K02Mk8l2xmg-13" value="&lt;font style=&quot;font-size: 24px;&quot;&gt;PRINT&amp;nbsp;Equation with no solution&lt;/font&gt;" style="shape=parallelogram;perimeter=parallelogramPerimeter;whiteSpace=wrap;html=1;fixedSize=1;" parent="1" vertex="1">
          <mxGeometry x="384" y="840" width="293" height="130" as="geometry" />
        </mxCell>
        <mxCell id="mrI6G-oE_K02Mk8l2xmg-15" style="edgeStyle=orthogonalEdgeStyle;rounded=0;orthogonalLoop=1;jettySize=auto;html=1;exitX=0.5;exitY=1;exitDx=0;exitDy=0;entryX=0.539;entryY=-0.008;entryDx=0;entryDy=0;entryPerimeter=0;" parent="1" source="mrI6G-oE_K02Mk8l2xmg-9" target="mrI6G-oE_K02Mk8l2xmg-13" edge="1">
          <mxGeometry relative="1" as="geometry" />
        </mxCell>
        <mxCell id="mrI6G-oE_K02Mk8l2xmg-19" style="edgeStyle=orthogonalEdgeStyle;rounded=0;orthogonalLoop=1;jettySize=auto;html=1;exitX=0.5;exitY=1;exitDx=0;exitDy=0;entryX=0.5;entryY=0;entryDx=0;entryDy=0;" parent="1" source="mrI6G-oE_K02Mk8l2xmg-16" target="mrI6G-oE_K02Mk8l2xmg-18" edge="1">
          <mxGeometry relative="1" as="geometry" />
        </mxCell>
        <mxCell id="mrI6G-oE_K02Mk8l2xmg-16" value="&lt;font style=&quot;font-size: 24px;&quot;&gt;CALCULATE the solution X = - B / A&lt;/font&gt;" style="rounded=0;whiteSpace=wrap;html=1;" parent="1" vertex="1">
          <mxGeometry x="922.5" y="635" width="245" height="105" as="geometry" />
        </mxCell>
        <mxCell id="mrI6G-oE_K02Mk8l2xmg-24" style="edgeStyle=orthogonalEdgeStyle;rounded=0;orthogonalLoop=1;jettySize=auto;html=1;entryX=1;entryY=0.5;entryDx=0;entryDy=0;" parent="1" edge="1">
          <mxGeometry relative="1" as="geometry">
            <mxPoint x="1059.9999999999995" y="970" as="sourcePoint" />
            <mxPoint x="816.0000000000027" y="1205" as="targetPoint" />
            <Array as="points">
              <mxPoint x="1060" y="1205" />
            </Array>
          </mxGeometry>
        </mxCell>
        <mxCell id="mrI6G-oE_K02Mk8l2xmg-18" value="&lt;font style=&quot;font-size: 24px;&quot;&gt;PRINT X ( Answer of Solution )&lt;/font&gt;" style="shape=parallelogram;perimeter=parallelogramPerimeter;whiteSpace=wrap;html=1;fixedSize=1;" parent="1" vertex="1">
          <mxGeometry x="898.5" y="840" width="361.5" height="140" as="geometry" />
        </mxCell>
        <mxCell id="mrI6G-oE_K02Mk8l2xmg-20" value="&lt;font style=&quot;font-size: 24px;&quot;&gt;END&lt;/font&gt;" style="ellipse;whiteSpace=wrap;html=1;" parent="1" vertex="1">
          <mxGeometry x="627" y="1140" width="189" height="130" as="geometry" />
        </mxCell>
        <mxCell id="mrI6G-oE_K02Mk8l2xmg-21" value="" style="endArrow=classic;html=1;rounded=0;entryX=0;entryY=0.5;entryDx=0;entryDy=0;" parent="1" target="mrI6G-oE_K02Mk8l2xmg-20" edge="1">
          <mxGeometry width="50" height="50" relative="1" as="geometry">
            <mxPoint x="220" y="970" as="sourcePoint" />
            <mxPoint x="270" y="920" as="targetPoint" />
            <Array as="points">
              <mxPoint x="220" y="1205" />
            </Array>
          </mxGeometry>
        </mxCell>
        <mxCell id="mrI6G-oE_K02Mk8l2xmg-22" value="" style="endArrow=classic;html=1;rounded=0;exitX=0.5;exitY=1;exitDx=0;exitDy=0;entryX=0.5;entryY=0;entryDx=0;entryDy=0;" parent="1" source="mrI6G-oE_K02Mk8l2xmg-13" target="mrI6G-oE_K02Mk8l2xmg-20" edge="1">
          <mxGeometry width="50" height="50" relative="1" as="geometry">
            <mxPoint x="680" y="1140" as="sourcePoint" />
            <mxPoint x="730" y="1090" as="targetPoint" />
            <Array as="points">
              <mxPoint x="700" y="1050" />
            </Array>
          </mxGeometry>
        </mxCell>
      </root>
    </mxGraphModel>
  </diagram>
</mxfile>
